<svg xmlns="http://www.w3.org/2000/svg" xmlns:xlink="http://www.w3.org/1999/xlink" width="176" height="64" viewBox="0 0 176 64">
  <defs>
    <linearGradient id="linear-gradient" x1="0.5" x2="0.5" y2="1" gradientUnits="objectBoundingBox">
      <stop offset="0" stop-color="#ff4757"/>
      <stop offset="1" stop-color="#ff6b81"/>
    </linearGradient>
    <clipPath id="clip-Custom_Size_1">
      <rect width="176" height="64"/>
    </clipPath>
  </defs>
  <g id="Custom_Size_1" data-name="Custom Size – 1" clip-path="url(#clip-Custom_Size_1)">
    <path id="Exclusion_1" data-name="Exclusion 1" d="M51.14,83.14a6.217,6.217,0,0,1-4.41-1.827L20.966,55.549a6.231,6.231,0,0,1,0-8.819L46.73,20.966a6.231,6.231,0,0,1,8.819,0L81.313,46.73a6.231,6.231,0,0,1,0,8.819L55.549,81.313a6.217,6.217,0,0,1-4.41,1.827ZM39.9,43.38h0a6.386,6.386,0,0,1,2.324.429A8.084,8.084,0,0,1,44.1,44.852a11.485,11.485,0,0,1,1.592,1.438,31.322,31.322,0,0,1,2.664,3.461l0,0,.386.551c.575.795,1.132,1.631,1.67,2.44a29.219,29.219,0,0,0,4.75,5.943,11.243,11.243,0,0,0,6.591,2.837H63.2a10.307,10.307,0,0,0,8.742-7.1l-.891,0c-.673,0-1.261.005-1.8.016a7.319,7.319,0,0,1-1.2,1.831,7.873,7.873,0,0,1-3.594,2.282,7.292,7.292,0,0,1-2.091.312,6.592,6.592,0,0,1-1.778-.241,6.272,6.272,0,0,1-1.681-.751A14.368,14.368,0,0,1,56.8,56.231,19.734,19.734,0,0,1,55,54.285a52.073,52.073,0,0,1-3.112-4.4,41.725,41.725,0,0,0-3.953-5.371,11.314,11.314,0,0,0-7.14-3.76H39.041a10.432,10.432,0,0,0-9.2,9.6v1.63a10.432,10.432,0,0,0,9.27,9.54h1.555c4.22-.4,7.379-3.452,9.287-5.943-.493-.775-1.082-1.693-1.713-2.629-1.822,2.886-3.787,4.693-6.007,5.524a6.43,6.43,0,0,1-2.342.432,7.245,7.245,0,0,1-2.459-.437,7.625,7.625,0,0,1-2.2-1.232A6.857,6.857,0,0,1,33.6,55.45a7.869,7.869,0,0,1-.969-2.239,8.086,8.086,0,0,1,.22-4.859,7.11,7.11,0,0,1,1.121-2.03,7.7,7.7,0,0,1,1.671-1.57,7.811,7.811,0,0,1,2.038-1.013A7.186,7.186,0,0,1,39.9,43.38Zm21.577,9.553,2.809,0h.328l2.5,0c2.143,0,3.784-.007,5.323-.022V50.362a10.447,10.447,0,0,0-9.33-9.607H61.658c-4.234.421-7.373,3.532-9.262,6.067.474.751.994,1.547,1.636,2.505a17.245,17.245,0,0,1,2.5-3.117,11.218,11.218,0,0,1,1.535-1.246,8.929,8.929,0,0,1,1.748-.913,6.906,6.906,0,0,1,2.613-.5,7.6,7.6,0,0,1,3.521.873A7.09,7.09,0,0,1,68.658,46.9a9.533,9.533,0,0,1,1.265,3.791c-.99.007-2.066.01-3.385.01l-2.01,0h-.154l-2.149,0-1.738,0c0,.747,0,1.5,0,2.236Z" transform="translate(-19.314 -19.14)" fill="url(#linear-gradient)"/>
    <text id="Abdelmalek_ELBOUDARY" data-name="Abdelmalek
ELBOUDARY" transform="translate(121 26)" fill="#ff6b81" font-size="20" font-family="SegoeUI, Segoe UI"><tspan x="-52.192" y="0">Abdelmalek</tspan><tspan fill="#ff4757"><tspan x="-54.443" y="27">ELBOUDARY</tspan></tspan></text>
  </g>
</svg>
